Coordinates
version=1
nRows=14
nColumns=36
inDegrees=yes

Units are S.I. units (second, meters, Newtons, ...)
If the header above contains a line with 'inDegrees', this indicates whether rotational values are in degrees (yes) or radians (no).

endheader
time	pelvis_tilt	pelvis_list	pelvis_rotation	pelvis_tx	pelvis_ty	pelvis_tz	hip_flexion_r	hip_adduction_r	hip_rotation_r	knee_angle_r	knee_angle_r_beta	ankle_angle_r	subtalar_angle_r	mtp_angle_r	hip_flexion_l	hip_adduction_l	hip_rotation_l	knee_angle_l	knee_angle_l_beta	ankle_angle_l	subtalar_angle_l	mtp_angle_l	lumbar_extension	lumbar_bending	lumbar_rotation	arm_flex_r	arm_add_r	arm_rot_r	elbow_flex_r	pro_sup_r	arm_flex_l	arm_add_l	arm_rot_l	elbow_flex_l	pro_sup_l
     14.86666670	     -6.72388667	     -2.09546234	     -2.76775099	      0.94086672	      0.81419797	      0.75324917	      2.86863842	      5.96032766	      3.56111962	      8.14723524	      0.14219608	     14.10897225	     -2.20998324	     -7.49999987	     35.08065843	     -2.31065033	     -4.02001265	     33.55102852	      0.58557592	     10.21605499	     -5.45856370	     -7.49999987	      6.49568807	      3.72153850	      6.90709952	      9.24234803	    -17.38402979	      9.19706378	     23.96915443	     86.73314215	     -1.46340376	     -9.02440165	     13.08279670	      9.40990541	     90.19096457
     14.88333330	     -7.41180667	     -2.35382548	     -2.99089686	      0.93920260	      0.80942824	      0.74973949	      1.98641317	      6.20752047	      3.74332216	      7.56314197	      0.13200173	     14.34977106	     -2.01427363	     -7.49999987	     36.46255028	     -2.31279468	     -3.25085212	     27.63025017	      0.48223884	     10.19625472	     -3.74252568	     -7.49999987	      6.74430079	      4.42772279	      7.57003208	     10.89012394	    -18.16435920	      9.09583118	     24.42219981	     87.12641114	     -1.62054678	     -8.43278133	     12.94722895	      8.52953922	     90.71112245
     14.90000000	     -7.71328095	     -2.13684553	     -3.19478499	      0.93697358	      0.80285243	      0.74797168	      0.68435842	      5.87778435	      3.34599554	      7.02910037	      0.12268094	     15.49231603	     -0.19487163	     -7.49999987	     36.86405806	     -2.04845218	     -3.13786953	     21.07152289	      0.36776745	     10.65220419	     -0.32901484	     -7.49999987	      6.29406763	      4.21946631	      8.07509796	     11.82971404	    -18.86329642	      9.08671189	     26.91529010	     86.30549465	     -2.11206847	     -8.30549475	     11.77926864	      9.07433064	     89.63115210
     14.91666670	     -7.97887903	     -2.27942068	     -3.20529211	      0.93375042	      0.79481364	      0.74717163	     -0.55543971	      5.91657294	      3.16094562	      6.51953373	      0.11378733	     16.35549042	      0.77135288	     -7.49999987	     37.24526513	     -2.05237786	     -2.24120145	     15.09724890	      0.26349670	     11.24264870	      2.59385630	     -7.49999987	      5.91782929	      4.58245689	      8.49281724	     12.84488338	    -19.75229355	      9.04185599	     28.74039288	     85.46409385	     -2.09760645	     -7.78874580	     10.59799628	      8.77204311	     88.56395489
     14.93333330	     -8.12799285	     -2.37125670	     -3.16274868	      0.93137383	      0.78850288	      0.74772044	     -1.75996847	      5.89553334	      3.01470946	      6.15225405	      0.10737709	     17.63394190	      1.93630119	     -7.49999987	     37.43207860	     -2.14573351	     -1.08998394	      9.93562952	      0.17340945	     11.66870703	      4.69651219	     -7.49999987	      5.43918340	      4.76931318	      8.75153181	     13.81629577	    -20.39443665	      8.95135088	     30.43335622	     83.90575750	     -2.13688789	     -7.42882702	      9.53053860	      8.87336934	     86.64814351
     14.95000000	     -7.96576146	     -2.39903682	     -3.06569802	      0.93156134	      0.78513421	      0.74838971	     -3.22192920	      5.77852780	      2.92697356	      5.89750906	      0.10293095	     19.22338631	      3.28076073	     -7.49999987	     37.38953826	     -2.27552369	      0.27761181	      6.30710934	      0.11007982	     11.90508465	      5.55561537	     -7.49999987	      4.70087362	      4.83955849	      8.32070181	     15.32281231	    -20.67994783	      9.10900343	     31.63851684	     90.19377688	     -2.35730470	     -6.80608483	      1.27896932	      8.88876027	     92.15195905
     14.96666670	     -7.77978744	     -2.22437579	     -3.00910009	      0.93446907	      0.78342941	      0.74863977	     -4.68967351	      5.45173085	      3.41028056	      5.81917662	      0.10156379	     20.76306022	      3.82105178	     -7.49999987	     37.42490355	     -2.32857586	      1.11982118	      4.53400570	      0.07913333	     12.07935079	      5.72556713	     -7.49999987	      4.21093067	      4.57665424	      8.47032127	     16.04614772	    -20.78806794	      9.11618512	     32.59754173	     90.34339057	     -2.29000899	     -6.78221930	      1.31593498	      8.56928712	     92.41387388
     14.98333330	     -7.09816366	     -1.86770677	     -2.87997597	      0.93799757	      0.78318702	      0.74854703	     -6.76425540	      4.86457929	      3.94769712	      5.81712549	      0.10152799	     22.17285573	      4.06138363	     -7.49999987	     36.94624592	     -2.11306267	      1.57736512	      4.49673600	      0.07848285	     12.10224017	      5.06802029	     -7.49999987	      3.29406118	      4.00926018	      8.90718300	     16.33831770	    -20.93152138	      9.13698652	     33.33651309	     89.19828403	     -1.88566888	     -6.77393032	      1.22716265	      8.13205912	     91.19866812
     15.00000000	     -6.97410472	     -1.37276423	     -2.77823388	      0.94155475	      0.78267269	      0.74912577	     -8.11555671	      4.12139692	      4.37152045	      6.32442862	      0.11038210	     23.37880974	      3.88063574	     -7.49999987	     37.11438739	     -1.74273917	      1.27870396	      6.15884608	      0.10749214	     11.87448960	      4.29567403	     -7.49999987	      3.39227266	      3.27462407	      9.03009498	     16.31494549	    -20.66515642	      9.21088586	     33.58031717	     89.14088805	     -2.19685999	     -7.00270148	      1.17127402	      8.48846528	     91.08239408
     15.01666670	     -5.62224300	     -0.65211503	     -2.66681702	      0.94413888	      0.78479301	      0.74952178	    -10.67811054	      3.03064198	      4.48714132	      7.08476881	      0.12365254	     23.80029680	      3.30331841	     -7.49999987	     35.63975383	     -0.95766482	      1.37423606	      8.43496106	      0.14721784	     10.66911550	      1.80980297	     -7.49999987	      2.02295590	      2.11124760	      9.25220341	     16.53897297	    -20.27586151	      9.30956580	     33.19248981	     89.77253651	     -1.42390232	     -7.13932733	      0.84382258	      7.07306296	     91.43272663
     15.03333330	     -4.82838253	     -0.04097525	     -2.56598791	      0.94544825	      0.78695055	      0.74829936	    -12.34049542	      2.11150253	      4.49148728	      8.30245904	      0.14490525	     23.35649773	      1.95384419	     -7.49999987	     34.76165880	     -0.21382797	      1.17952486	     11.33707395	      0.19786927	      9.17189799	     -0.09285148	     -7.49999987	      1.42879734	      1.12694051	      9.30097571	     16.27641698	    -19.75890544	      8.37360574	     32.93978476	     97.07426945	     -1.22449356	     -7.43694237	     -0.66041357	      6.76478666	     96.73695910
     15.05000000	     -4.14098420	      0.46848113	     -2.31936389	      0.94547998	      0.78899967	      0.74549225	    -13.46569632	      1.38594993	      4.32854254	     10.06677949	      0.17569845	     22.05121755	      0.13999418	     -7.49999987	     33.86797254	      0.63087316	      1.54658000	     13.99397353	      0.24424091	      7.17188594	     -2.20859647	     -7.49999987	      0.85193128	      0.21195040	      9.27255198	     15.66784108	    -19.30110197	      8.12795377	     32.64075661	     94.34411515	     -0.94928572	     -7.63534528	     -0.74680441	      6.52372278	     93.87694867
     15.06666670	     -3.44544636	      0.75431960	     -1.70583230	      0.94603200	      0.79058737	      0.74256660	    -14.07164591	      1.02758227	      3.84549434	     12.62073059	      0.22027330	     19.75578258	     -1.79254754	     -7.49999987	     32.90523953	      1.53397692	      2.70820532	     16.32017390	      0.28484077	      5.22311130	     -4.29025891	     -7.49999987	      0.05924775	     -0.40311456	      8.49522891	     15.18328355	    -18.82099282	      8.01003807	     32.37007220	     94.83475442	     -0.77675073	     -7.90270102	     -0.65647051	      6.57235978	     94.25578981
     15.08333330	     -2.39058424	      0.89612820	     -0.66353026	      0.94824607	      0.79229220	      0.73984613	    -14.49225409	      0.97180588	      3.05751236	     16.07070178	      0.28048666	     16.11311440	     -4.17013792	     -7.49999987	     31.40099595	      2.56013174	      4.58493797	     18.20486077	      0.31773476	      3.62547851	     -6.14653918	     -7.49999987	     -1.30941125	     -0.88599240	      7.28847788	     14.59978678	    -18.33414260	      7.83828954	     32.02685395	     95.32873737	     -0.31326105	     -8.20085963	     -0.51195463	      6.73876366	     94.57892137
